<svg viewBox="0 0 201 201" fill="none" xmlns="http://www.w3.org/2000/svg">
  <rect x=".181" y=".466" width="200" height="200" rx="20" fill="url(#a)"/>
  <path fill-rule="evenodd" clip-rule="evenodd" d="M34.747 34.858C73.713 44.39 145.34 91.73 180.037 140.63c-11.333-6.467-52.284-22.619-84.62-20.305 9.871.673 20.527 3.958 30.294 8.091a199.517 199.517 0 0 1 13.332 23.553c-13.232-10.878-49.796-26.129-83.502-9.763 6.424-22.943 5.312-55.928-23.346-90.789a230.777 230.777 0 0 1 23.66 11.924c8.066 9.575 12.469 21.38 14.582 31.822-2.346-21.617-11.527-46.374-35.69-60.306Z" fill="#fff"/>
  <defs>
    <linearGradient id="a" x1="-26.099" y1="124.001" x2="220.272" y2="104.55" gradientUnits="userSpaceOnUse">
      <stop stop-color="#0031F1"/>
      <stop offset="1" stop-color="#1568E5"/>
    </linearGradient>
  </defs>
</svg>
