<svg version="1.0" xmlns="http://www.w3.org/2000/svg" viewBox="0 0 513 513">
  <path d="M226.6 3.6C192.2 8 152.9 22 124 40c-32.8 20.4-63.9 51.7-83.5 84-17.7 29-29.3 61.1-35.1 96.7-2.2 13.7-3 46.1-1.5 60.9 6.3 61.8 33.6 118.1 78 160.7 41.3 39.5 94 63.9 150.9 69.8 16.4 1.7 51.5.7 66.8-2 72.1-12.4 132.4-51.4 172.7-111.8 17.7-26.5 30-56.4 37.4-90.8 2.8-12.9 2.8-13.3 2.8-50 0-36.5 0-37.2-2.7-49.5-5.4-24.9-11.3-42.1-21.8-63.5-21.5-43.9-54.3-79.8-96.6-105.7-31-19.1-68.1-31.6-105.6-35.7-13.3-1.5-45.9-1.2-59.2.5zm55.6 129c38.4 7.3 71.8 32.3 89.5 67 21.4 41.9 18.3 90.3-8.3 129.9-5.6 8.4-14 18.3-14.7 17.5-2.4-2.9-27.7-41.4-27.7-42.1 0-.6 1.1-2.5 2.5-4.3 1.3-1.8 4-6.7 6-10.9 8.3-18 9.4-37.9 3-56.8-8.4-24.5-28.5-43.4-53.4-50.1-11.1-3-28.8-3-39.5 0-52 14.9-73.9 73.4-44.2 118.1 8.7 13.1 23.5 24.5 38.4 29.5 13.4 4.6 31.3 5.7 41.8 2.7l3.1-.9 13.9 20.5c7.7 11.3 14.2 21 14.5 21.6 1.6 2.5 25.6-11.6 36.3-21.4l5.4-5 13.4 19.8c7.4 10.9 13.8 20.3 14.1 21 .4.7-6.5 6-18.7 14.2-10.7 7.2-20.2 13.4-21 13.7-1 .4-5.5-5.5-15.5-20.4L307 375.3l-6.5 2.3c-12.7 4.6-25.7 6.7-42 6.7-16.1 0-24.6-1.3-39-6-44.4-14.3-78-52.9-86-99-2.2-12.6-2-34.2.5-46.4 11.1-54.6 55.7-95.6 110.6-101.9 9.8-1.1 27.4-.3 37.6 1.6z"/>
</svg>
